<?xml version="1.0" standalone="no"?>
<!DOCTYPE svg PUBLIC "-//W3C//DTD SVG 20010904//EN"
 "http://www.w3.org/TR/2001/REC-SVG-20010904/DTD/svg10.dtd">
<svg version="1.0" xmlns="http://www.w3.org/2000/svg"
 width="427.000000pt" height="125.000000pt" viewBox="0 0 427.000000 125.000000"
 preserveAspectRatio="xMidYMid meet">

<g transform="translate(0.000000,125.000000) scale(0.100000,-0.100000)"
fill="#000000" stroke="none">
<path d="M960 1149 c-74 -13 -182 -66 -252 -123 l-58 -47 0 51 c0 49 -1 50
-22 39 -45 -24 -145 -137 -176 -199 l-32 -63 0 78 c0 90 -9 90 -59 1 -89 -156
-87 -365 5 -522 46 -78 54 -76 54 11 l0 78 30 -60 c33 -66 121 -168 169 -196
l31 -18 0 52 0 51 40 -35 c60 -55 112 -84 197 -113 310 -104 635 97 684 423
37 247 -110 486 -350 569 -78 27 -185 36 -261 23z"/>
<path d="M1828 710 l57 -170 55 0 55 0 57 170 56 170 -37 0 -37 0 -44 -135
c-24 -74 -47 -135 -50 -135 -3 0 -24 61 -48 135 l-43 135 -39 0 -38 0 56 -170z"/>
<path d="M232 823 c-35 -90 -43 -236 -18 -329 31 -116 35 -98 36 134 0 122 -2
222 -4 222 -2 0 -8 -12 -14 -27z"/>
<path d="M3186 799 c-44 -7 -76 -39 -76 -74 0 -40 30 -64 100 -77 59 -12 65
-15 65 -38 0 -22 -5 -25 -37 -28 -27 -2 -43 3 -57 17 -12 12 -34 21 -50 21
-24 0 -28 -3 -24 -19 12 -48 86 -75 165 -61 109 20 101 140 -10 155 -75 10
-83 15 -80 38 2 17 11 23 39 25 23 2 40 -2 49 -12 16 -20 70 -21 70 -3 0 40
-81 69 -154 56z"/>
<path d="M2208 783 c-28 -17 -58 -77 -58 -113 0 -40 32 -101 63 -116 33 -18
109 -20 149 -5 24 9 58 46 58 63 0 16 -63 7 -87 -12 -14 -11 -34 -20 -45 -20
-20 0 -68 42 -68 60 0 6 37 10 100 10 l100 0 0 25 c0 38 -25 90 -51 109 -32
22 -125 21 -161 -1z m120 -39 c12 -8 22 -24 22 -35 0 -17 -7 -19 -59 -19 -33
0 -62 4 -65 9 -10 15 34 61 58 61 12 0 32 -7 44 -16z"/>
<path d="M2480 670 l0 -130 35 0 35 0 0 85 c0 72 3 88 20 105 23 23 49 25 75
6 15 -11 20 -30 23 -105 l4 -91 34 0 34 0 0 83 c0 96 -14 153 -40 167 -36 19
-99 12 -125 -15 l-25 -24 0 24 c0 22 -5 25 -35 25 l-35 0 0 -130z"/>
<path d="M2790 728 c0 -149 20 -188 94 -188 29 0 52 7 70 21 l26 20 0 -20 c0
-18 6 -21 40 -21 l41 0 -3 128 -3 127 -37 3 -38 3 0 -85 c0 -73 -3 -89 -20
-106 -23 -23 -49 -26 -73 -7 -13 9 -17 32 -19 102 l-3 90 -37 3 -38 3 0 -73z"/>
<path d="M1773 395 c0 -38 2 -55 4 -37 4 29 7 32 38 32 31 0 34 -3 38 -32 2
-18 4 -1 4 37 0 39 -2 55 -4 38 -4 -30 -7 -33 -38 -33 -31 0 -34 3 -38 33 -2
17 -4 1 -4 -38z"/>
<path d="M2171 398 c0 -38 2 -68 7 -68 4 0 6 21 4 48 -5 82 -9 89 -11 20z"/>
<path d="M2266 453 c-3 -3 -5 -34 -4 -67 l2 -61 3 53 c5 59 15 66 33 22 7 -16
16 -30 20 -30 4 0 13 14 20 30 18 44 28 37 33 -22 3 -50 3 -49 5 15 2 75 -9
86 -35 32 -20 -43 -27 -44 -43 -5 -14 33 -24 43 -34 33z"/>
<path d="M3402 448 c-21 -21 -13 -39 24 -54 47 -20 44 -50 -6 -48 -33 2 -33 1
-12 -9 17 -8 29 -8 40 0 28 17 20 47 -16 62 -44 20 -39 47 8 44 23 -1 29 1 19
8 -20 12 -43 11 -57 -3z"/>
<path d="M3609 440 c-2 -14 -2 -45 1 -70 l6 -45 4 47 c3 26 2 57 -1 70 l-5 23
-5 -25z"/>
<path d="M2008 438 c-2 -7 -3 -34 0 -60 3 -36 8 -48 21 -48 12 0 13 2 3 8 -7
5 -12 27 -11 55 2 47 -5 69 -13 45z"/>
<path d="M3288 438 c-2 -7 -3 -34 0 -60 3 -36 8 -48 21 -48 12 0 13 2 3 8 -7
5 -12 27 -11 55 2 47 -5 69 -13 45z"/>
<path d="M3668 438 c-2 -7 -3 -34 0 -60 3 -36 8 -48 21 -48 12 0 13 2 3 8 -7
5 -12 27 -11 55 2 47 -5 69 -13 45z"/>
<path d="M1943 416 c26 -21 19 -70 -10 -74 -17 -3 -24 3 -29 22 -4 16 -1 32 6
41 8 10 9 15 1 15 -16 0 -24 -45 -11 -69 21 -41 70 -19 70 31 0 18 -7 31 -22
38 -21 10 -22 10 -5 -4z"/>
<path d="M2115 409 c11 -13 21 -26 22 -28 2 -2 3 3 3 12 0 9 -10 22 -22 28
l-23 12 20 -24z"/>
<path d="M2828 419 c-21 -12 -24 -59 -6 -77 14 -14 44 -16 52 -4 2 4 -8 8 -22
7 -22 0 -28 5 -30 28 -2 19 3 33 15 43 21 16 16 18 -9 3z"/>
<path d="M2958 419 c6 -7 13 -31 14 -53 1 -41 1 -41 5 -6 3 19 10 42 16 50 6
8 8 12 3 8 -5 -4 -18 -2 -30 4 -17 9 -19 8 -8 -3z"/>
<path d="M3125 409 c11 -13 21 -26 22 -28 2 -2 3 3 3 12 0 9 -10 22 -22 28
l-23 12 20 -24z"/>
<path d="M3543 416 c23 -18 20 -69 -5 -74 -24 -5 -41 32 -28 61 11 21 10 21
-4 3 -20 -24 -20 -37 -3 -61 10 -13 21 -16 40 -11 23 5 27 12 27 41 0 26 -6
37 -22 45 -21 10 -22 10 -5 -4z"/>
<path d="M4085 409 c11 -13 21 -26 22 -28 2 -2 3 3 3 12 0 9 -10 22 -22 28
l-23 12 20 -24z"/>
<path d="M2064 396 c-3 -13 -1 -34 6 -45 11 -21 44 -29 54 -12 3 4 -6 6 -19 3
-14 -2 -25 0 -26 4 0 5 -2 18 -4 29 -2 10 1 25 7 32 7 9 7 13 -1 13 -6 0 -13
-11 -17 -24z"/>
<path d="M2456 407 c3 -8 6 -27 7 -42 1 -16 8 -30 14 -32 7 -3 10 4 8 14 -13
62 -16 73 -25 73 -5 0 -7 -6 -4 -13z"/>
<path d="M2512 371 c1 -41 2 -42 5 -11 3 19 9 40 14 46 5 7 3 11 -6 11 -11 0
-15 -12 -13 -46z"/>
<path d="M2568 383 c5 -59 10 -63 11 -10 1 26 -3 47 -7 47 -4 0 -6 -17 -4 -37z"/>
<path d="M2668 379 c2 -21 7 -41 11 -43 3 -2 5 13 3 35 -2 21 -7 41 -11 43 -3
2 -5 -13 -3 -35z"/>
<path d="M2716 404 c-7 -17 9 -44 26 -44 5 0 3 7 -6 15 -8 9 -13 22 -10 30 4
8 4 15 1 15 -3 0 -8 -7 -11 -16z"/>
<path d="M2765 395 c0 -13 3 -21 8 -18 4 2 7 10 7 18 0 8 -3 16 -7 18 -5 3 -8
-5 -8 -18z"/>
<path d="M2867 400 c3 -11 9 -20 15 -20 5 0 4 9 -2 20 -6 11 -12 20 -14 20 -2
0 -2 -9 1 -20z"/>
<path d="M2921 373 c1 -53 6 -49 11 10 2 20 0 37 -4 37 -4 0 -8 -21 -7 -47z"/>
<path d="M3028 383 c5 -59 10 -63 11 -10 1 26 -3 47 -7 47 -4 0 -6 -17 -4 -37z"/>
<path d="M3074 396 c-3 -13 -1 -34 6 -45 11 -21 44 -29 54 -12 3 4 -6 6 -19 3
-14 -2 -25 0 -26 4 0 5 -2 18 -4 29 -2 10 1 25 7 32 7 9 7 13 -1 13 -6 0 -13
-11 -17 -24z"/>
<path d="M3183 375 c0 -27 2 -38 4 -22 2 15 2 37 0 50 -2 12 -4 0 -4 -28z"/>
<path d="M3227 409 c6 -8 13 -30 16 -49 4 -28 4 -26 3 9 -1 30 -6 46 -16 49
-12 4 -13 2 -3 -9z"/>
<path d="M3724 405 c15 -64 19 -75 27 -75 11 0 11 6 0 28 -5 9 -14 28 -20 42
-7 15 -9 17 -7 5z"/>
<path d="M3770 404 c0 -8 5 -12 10 -9 6 3 10 10 10 16 0 5 -4 9 -10 9 -5 0
-10 -7 -10 -16z"/>
<path d="M3823 383 c-10 -38 -10 -38 -22 -13 l-12 25 6 -25 c2 -14 5 -28 5
-32 0 -5 4 -8 10 -8 10 0 35 79 27 87 -3 2 -9 -13 -14 -34z"/>
<path d="M3918 380 c2 -22 7 -42 11 -44 3 -2 4 16 2 40 -1 24 -6 44 -10 44 -3
0 -5 -18 -3 -40z"/>
<path d="M3972 370 c1 -40 2 -41 5 -10 2 19 11 40 20 47 13 10 13 12 -6 10
-18 -1 -21 -7 -19 -47z"/>
<path d="M4034 396 c-3 -13 -1 -34 6 -45 11 -21 44 -29 54 -12 3 4 -6 6 -19 3
-14 -2 -25 0 -26 4 0 5 -2 18 -4 29 -2 10 1 25 7 32 7 9 7 13 -1 13 -6 0 -13
-11 -17 -24z"/>
<path d="M2412 358 c2 -14 11 -24 23 -25 17 -2 17 -1 2 3 -13 4 -17 12 -14 25
3 10 1 19 -5 19 -5 0 -8 -10 -6 -22z"/>
<path d="M2614 365 c-8 -21 4 -35 29 -34 l22 0 -22 9 c-25 10 -30 26 -10 33 9
4 9 6 -1 6 -7 1 -15 -6 -18 -14z"/>
<path d="M3866 371 c-11 -17 6 -41 28 -40 20 0 20 1 -3 10 -19 8 -21 12 -11
24 8 10 9 15 2 15 -6 0 -13 -4 -16 -9z"/>
<path d="M2714 327 c-3 -10 -3 -21 0 -24 3 -4 6 1 6 10 0 12 9 17 31 17 36 0
35 -21 -2 -31 -14 -4 -17 -7 -7 -8 28 -2 48 10 48 29 0 27 -68 33 -76 7z"/>
</g>
</svg>
